# xmcd
#
# Track frame offsets: 
#        150
#        18832
#        32564
#        50226
#        65768
#        81225
#        99008
#        114906
#        136949
#        152093
#        171079
#        185731
#        204456
#
# Disc length: 2963 seconds
#
# Revision: 0
# Processed by: cddbd v1.5.2PL0 Copyright (c) Steve Scherf et al.
# Submitted via: ExactAudioCopy v1.0b3
#
DISCID=a80b910d
DTITLE=Pete Gavin - Good Blues, Man.
DYEAR=2014
DGENRE=Blues
TTITLE0=My Baby's Gone
TTITLE1=Boom, Boom
TTITLE2=Albatross Blues
TTITLE3=Shake Your Money Maker
TTITLE4=King Bee
TTITLE5=Bring It On Home To Me
TTITLE6=Short Slide Story
TTITLE7=Rock Me Baby
TTITLE8=Sliding The Blues - Madison Blues
TTITLE9=Kansas City
TTITLE10=Cobwebs
TTITLE11=You Better Move On
TTITLE12=Everyday I Have The Blues
EXTD=
EXTT0=
EXTT1=
EXTT2=
EXTT3=
EXTT4=
EXTT5=
EXTT6=
EXTT7=
EXTT8=
EXTT9=
EXTT10=
EXTT11=
EXTT12=
PLAYORDER=
